<svg width="21" height="18" viewBox="0 0 21 18" fill="none" xmlns="http://www.w3.org/2000/svg">
<path d="M15.4164 1.40419H15.4183C16.5773 1.40419 17.6629 1.85429 18.4827 2.67309C19.2942 3.48641 19.75 4.58844 19.75 5.73741C19.75 6.88663 19.294 7.98888 18.4822 8.80225L10.5002 16.7852L2.5174 8.80233C1.7058 7.98899 1.25 6.88692 1.25 5.73793C1.25 4.58893 1.7058 3.48686 2.5174 2.67353L2.51837 2.67256C2.91935 2.26925 3.39634 1.94948 3.92174 1.73176C4.44714 1.51405 5.0105 1.40271 5.57922 1.40419H5.58118C6.74031 1.40419 7.82596 1.85439 8.6458 2.67335L9.42519 3.45274L9.96993 3.99748L10.5008 4.52831L11.0311 3.99698L11.5743 3.45274L11.5748 3.45224L12.354 2.67307L12.3552 2.67182C12.7564 2.26874 13.2335 1.94918 13.7589 1.7316C14.2844 1.51402 14.8477 1.40274 15.4164 1.40419Z" stroke="#111111" stroke-width="1.5"/>
</svg>
