<svg width="90" height="84" viewBox="0 0 90 84" fill="none" xmlns="http://www.w3.org/2000/svg">
<path fill-rule="evenodd" clip-rule="evenodd" d="M50.84 5.83524C50.7807 5.64254 50.7807 5.64254 50.7807 5.47948C50.7257 4.21571 51.1747 2.98181 52.0289 2.04884C52.8831 1.11587 54.0727 0.560136 55.3364 0.503713C56.5988 0.454022 57.8298 0.904768 58.7616 1.75791C59.6934 2.61106 60.2506 3.7976 60.3122 5.05948C60.3699 6.31984 59.9252 7.55161 59.0757 8.48447C58.2263 9.41733 57.0414 9.97505 55.7811 10.0352C55.6477 10.055 55.4748 10.0352 55.2821 10.0352C55.203 10.055 55.0844 10.055 55.0054 10.1439C54.7287 10.559 55.6971 10.5047 54.9807 12.3181C54.9807 12.3181 54.9807 12.5058 54.9214 12.6985C54.8621 13.3903 54.5261 15.4755 54.447 16.6169C54.5903 16.8145 54.6447 16.8639 54.5903 17.2592C54.4818 18.145 54.3335 19.0254 54.1456 19.8978C53.948 20.5896 53.6712 20.7576 53.4192 20.8959C53.0585 22.3684 52.9498 23.5889 52.0308 25.3677C51.9221 26.7315 51.8084 27.0971 51.507 27.7592C51.423 29.7357 51.5564 30.0322 50.1185 33.1995C49.7232 34.6818 50.0345 35.7047 50.3656 37.2562C50.7016 38.8423 51.7294 39.5341 51.8381 41.1745C52.0851 44.9842 51.9221 47.6228 51.0327 50.5974L51.6997 52.3169C52.5891 52.7319 54.7534 53.9277 53.4785 55.6522C55.1734 56.591 57.7527 57.599 59.8032 59.5112C60.6729 60.2376 61.5327 61.0677 62.3381 61.9818C63.8995 62.2635 63.7018 62.3771 64.8383 63.1232C68.1736 65.2875 73.4804 69.5665 76.5637 72.5411C77.1171 72.8722 77.2901 73.0945 77.7298 73.3465C77.7793 73.4602 77.8138 73.5145 77.7793 73.5442C77.6508 73.8999 77.6508 73.8999 77.4828 74.2359C77.6755 74.4336 77.9522 74.5967 78.1449 74.7647C78.3425 74.7894 78.3425 74.735 78.6192 74.6807C79.0096 75.0414 79.5087 75.3477 79.6767 75.3477C80.2004 75.239 80.0917 75.323 80.5908 74.8536C80.7341 74.6807 81.0058 74.8536 81.0058 74.8536C81.2035 74.6559 81.5642 74.2656 82.0632 73.9839C82.4536 73.7616 83.1997 73.7616 83.1997 73.7616C83.4567 73.7912 83.3974 74.0136 83.343 74.1223C83.0614 74.2359 82.4536 74.4039 82.1225 74.6559C81.3715 75.3477 80.7588 76.4002 80.7588 76.4002C82.2362 76.2371 83.1503 76.6225 84.3115 76.5138C84.9835 76.4891 85.4825 76.5435 86.1743 76.0691C86.1743 76.0691 86.8661 75.5948 87.4837 75.3774C88.0668 75.1303 88.6202 75.2934 89.1143 75.6837C89.4552 76.0988 89.7023 76.0988 89.1143 76.6522C88.8969 76.8745 88.6202 77.1265 88.2249 77.4922C87.5677 78.1 86.6783 78.9301 85.7543 79.6268C84.9398 80.2302 84.0675 80.7516 83.1503 81.1833C81.4802 82.3197 81.8656 82.043 80.5661 83.1301C80.4178 83.2388 79.9534 83.5155 79.7607 83.6538C79.2319 83.9602 79.0936 83.6835 78.7872 83.0708C78.7872 83.0708 78.6489 82.8484 78.392 82.379C78.1449 81.8503 77.9473 81.2425 78.0362 81.2425C77.7298 81.2079 76.4007 79.5428 76.4007 79.2167C76.0894 79.1524 74.8985 77.9319 74.8689 77.6849L73.8115 76.7955C72.5614 77.0129 72.2797 76.2371 69.063 73.7912C68.6677 73.7616 68.0896 73.5442 67.2842 72.9315C65.8117 71.6814 62.3084 68.9044 61.7303 68.5684C61.088 68.2374 60.3418 67.9063 59.8378 67.511C59.1164 67.4023 58.7607 67.2639 58.3654 67.1799C57.9701 67.0712 57.6736 66.8983 56.7545 66.7896C55.2574 66.5672 53.7009 65.9002 52.2531 65.1244C51.5614 64.7637 50.9487 64.5957 50.3656 64.2894C49.0315 63.6767 47.8654 63.1232 46.976 62.9058C45.992 62.6693 45.0469 62.2933 44.1694 61.7891C43.868 61.6211 43.7 61.4927 43.5072 61.4284C43.0625 61.3197 42.7512 61.4581 42.5585 61.5371C41.4221 62.0708 40.3943 62.5402 39.416 63.0689C38.5265 63.5136 37.6964 63.9879 36.807 64.4821C35.9433 64.9329 35.0632 65.3515 34.1684 65.7371C34.1684 65.7371 31.5298 66.9872 30.0574 67.4567C28.7727 68.4301 26.1687 70.1545 24.5875 70.9896C23.8068 71.3503 22.28 72.2348 21.5832 72.4324C21.188 72.7338 19.7501 73.7072 18.6383 74.5126C17.7489 75.1254 17.1065 75.6541 17.1065 75.6541C16.5828 76.0691 16.6075 76.2964 15.723 75.8764C15.5005 76.0228 15.286 76.1812 15.0807 76.3508C14.3889 76.8202 14.3592 76.7115 14.0825 76.6818C13.5835 77.0771 13.5242 76.8795 13.1091 77.3242C12.8077 77.7392 13.1091 77.6256 12.5261 77.8479C12.3877 77.8776 12.3284 78.0456 12.2444 78.1247C11.78 78.4854 11.7503 79.5724 10.6385 79.6268C9.97148 80.0715 10.1098 80.6298 9.66513 80.5705C9.66513 81.0745 8.77572 81.707 8.60772 81.707C7.16489 82.1814 7.1056 81.1239 5.41572 81.8799C5.19336 81.959 4.85736 82.2357 4.4423 82.295C3.69125 82.4037 2.80183 82.2654 2.24842 81.791C1.62613 81.2103 1.08437 80.5489 0.637599 79.8244C0.385599 79.1821 0.553598 78.7967 1.44301 78.1839C1.80372 77.9616 1.85807 77.7936 2.47077 77.7689C2.76725 77.6503 2.69313 77.8183 3.21195 77.6503C3.52819 77.5712 3.52819 77.6256 4.1656 77.6256C4.30395 77.5416 4.49666 77.5169 4.7783 77.4032C5.27242 77.2352 5.74678 77.0969 5.74678 77.0969C5.74678 77.0969 5.88513 76.9832 6.35948 77.0475C6.74489 76.8745 7.19454 76.6522 7.41689 76.5682C7.3576 75.9555 7.4416 75.9555 7.71336 75.7084C8.10866 75.4021 8.15807 75.4614 8.44466 75.659C8.55336 75.6244 8.63736 75.5948 8.57807 75.4861C8.52866 75.1254 8.27666 74.9574 8.35572 74.2656C8.24701 73.9839 8.0543 73.6282 8.10866 73.4058C8.15807 73.1835 8.24701 73.0649 8.38536 73.0155C8.52866 72.9562 8.60772 73.0451 8.66701 73.1242C8.80536 73.2922 8.91407 73.7912 8.91407 73.7912C8.94372 74.3743 9.11172 75.076 9.66513 74.6807C9.99619 74.3743 10.0802 73.4849 10.7225 73.6776L11.1969 74.0976C11.612 73.7369 11.6119 73.7369 11.8887 73.5689C11.8887 73.5689 11.4934 73.2082 11.8294 72.9018C12.0517 72.7091 12.363 72.5708 12.8571 72.0371C14.2209 70.5943 14.9423 69.9618 16.3851 68.7908C18.9476 66.8513 21.7747 65.2888 24.7802 64.151C25.5016 63.2912 26.1637 62.7378 27.6708 62.6489C29.5336 59.6545 33.032 57.0357 33.8374 56.6207C34.4995 55.4842 34.7762 55.5929 35.6409 55.4002C36.308 54.8715 36.5056 54.8715 36.7774 54.3428C37.0887 53.2063 36.224 50.0934 38.6698 50.0094C39.2232 49.2879 39.0552 49.4559 39.6383 48.7839C39.3477 47.9861 39.152 47.1569 39.0552 46.3134C39.0305 46.2343 38.0868 45.5376 38.4129 44.6729C37.8949 44.0118 37.4509 43.296 37.0887 42.5383C36.9824 42.5352 36.8773 42.5152 36.7774 42.479C36.6687 42.4543 36.5056 42.4543 36.3327 42.4543C35.9472 43.4228 35.5272 43.4821 34.8355 43.7044C33.5508 46.2343 33.1061 47.3164 29.667 49.3472C28.2835 50.8197 27.7795 52.5096 27.7795 52.4799C27.5698 52.9844 27.5487 53.5474 27.7202 54.0661C27.4978 54.5948 27.5868 54.6788 27.5868 54.6788C27.6362 54.9011 27.8635 55.2025 28.1105 55.2322C28.5009 55.3458 28.9456 55.3458 28.8912 55.8152C28.8369 56.3736 28.0858 56.2599 27.7202 56.1759C26.3614 55.9289 26.8061 55.0395 25.9167 55.3162C25.2199 55.7362 24.9482 57.0357 23.8611 56.8479C23.7228 56.7343 23.7771 56.4823 23.8908 56.2599C24.0291 55.9635 24.3058 55.6769 24.1675 55.5682C23.4461 55.7658 22.028 56.1759 22.028 56.1759C21.3609 56.3736 20.6395 55.9832 21.3016 55.5632C21.6129 55.4545 22.0576 55.3162 22.611 54.9802C22.611 54.9802 22.9174 54.6244 22.3294 54.7875C21.6637 54.9873 20.9669 55.0627 20.2738 55.0098C20.2738 55.0098 19.004 54.8171 18.831 54.7331C18.6927 54.6244 18.5296 54.2044 18.915 54.239C19.8515 54.2246 20.7839 54.112 21.6969 53.903C22.1663 53.7301 23.0804 53.2112 23.5844 52.9839C23.5844 52.9839 24.1428 52.2082 24.4738 52.0451C25.0025 51.4818 25.4127 51.1557 25.8574 50.5677C26.3021 49.6783 26.8061 48.2948 28.328 46.091C29.0993 44.9407 29.985 43.8712 30.9715 42.899C30.9715 42.899 31.2778 41.2289 32.6663 40.0677C32.9776 39.3759 33.4421 38.5359 33.9461 37.7849C34.1367 37.5186 34.3116 37.2415 34.4698 36.9548C34.9145 36.3124 35.3889 35.0919 37.0294 34.9289C37.0294 34.9289 37.7557 34.4249 38.0028 34.0642C38.4178 33.7035 38.3684 33.1451 38.6945 32.7844C38.1708 32.2607 36.891 31.2576 36.807 29.9531C36.753 29.3213 36.8427 28.6855 37.0695 28.0933C37.2963 27.5011 37.6542 26.9679 38.1164 26.5338C39.0849 25.6197 40.083 25.175 41.3084 25.259C42.8352 25.5308 43.1169 26.0348 43.5567 26.5338C44.0014 27.0329 44.199 26.7315 44.3621 27.2552C45.6418 27.6159 45.5875 27.4776 45.5331 28.4214C45.7555 28.703 46.0569 28.955 46.0272 29.4788C46.4472 28.6141 46.5609 28.451 47.727 27.5072C48.0334 26.7315 48.2211 25.9508 48.4682 25.1454C48.7251 24.4239 49.0315 23.6729 49.2291 23.1195C49.0315 21.5087 49.5256 21.2567 50.1976 19.8385C50.0889 19.6458 50.1185 19.5915 50.1679 19.2851C50.4496 18.3364 50.84 17.1456 51.087 16.3402C51.087 16.3402 51.171 16.0289 51.507 16.0289C51.8035 15.0308 52.2828 13.1679 52.3915 12.7529C52.6978 11.7251 52.5348 11.3348 52.3421 10.727C52.2828 10.5294 52.3124 10.2823 52.1938 10.055C51.8532 9.3929 51.54 8.71703 51.255 8.02912C51.1167 7.66842 50.8597 6.27995 50.8597 6.27995C50.84 5.97359 50.84 5.83524 50.84 5.83524Z" fill="#111111"/>
</svg>
